{
	"asset":{
		"generator":"Khronos glTF Blender I/O v3.5.30",
		"version":"2.0"
	},
	"scene":0,
	"scenes":[
		{
			"name":"Scene",
			"nodes":[
				17,
				18,
				19
			]
		}
	],
	"nodes":[
		{
			"mesh":0,
			"name":"Cylinder019_03 - Default_0",
			"translation":[
				0.0001220703125,
				0,
				-6.773429049644619e-05
			]
		},
		{
			"children":[
				0
			],
			"name":"Object_4",
			"translation":[
				0.0001220703125,
				35.17708969116211,
				39.30590057373047
			]
		},
		{
			"children":[
				1
			],
			"name":"Cylinder019",
			"rotation":[
				-0.70710688829422,
				0,
				0,
				0.7071066498756409
			],
			"scale":[
				0.3078089952468872,
				0.31566303968429565,
				0.1786160171031952
			],
			"translation":[
				486.62347412109375,
				-99.76649475097656,
				19.76322364807129
			]
		},
		{
			"mesh":1,
			"name":"Cylinder039_09 - Default_0"
		},
		{
			"children":[
				3
			],
			"name":"Cylinder039",
			"rotation":[
				-0.70710688829422,
				0,
				0,
				0.7071066498756409
			],
			"scale":[
				5.405279159545898,
				5.543191432952881,
				3.039987564086914
			],
			"translation":[
				488.67132568359375,
				-107.09212493896484,
				5.273890018463135
			]
		},
		{
			"mesh":2,
			"name":"Object234_02 - Default_0",
			"translation":[
				-4.4286251068115234e-05,
				0,
				2.3365020751953125e-05
			]
		},
		{
			"children":[
				5
			],
			"name":"Object234",
			"rotation":[
				-0.30041947960853577,
				-0.04324609041213989,
				-0.005693528801202774,
				0.9528092741966248
			],
			"translation":[
				569.3619995117188,
				388.5293273925781,
				8.66969108581543
			]
		},
		{
			"mesh":3,
			"name":"Object235_10 - Default_0",
			"translation":[
				0.0001220703125,
				0,
				-6.699131972709438e-06
			]
		},
		{
			"children":[
				7
			],
			"name":"Object_16",
			"translation":[
				0.0001220703125,
				35.177085876464844,
				39.30590057373047
			]
		},
		{
			"children":[
				8
			],
			"name":"Object235",
			"rotation":[
				-0.70710688829422,
				0,
				0,
				0.7071066498756409
			],
			"scale":[
				0.3078089952468872,
				0.31566303968429565,
				0.1786160171031952
			],
			"translation":[
				486.62347412109375,
				-113.34461975097656,
				19.76322364807129
			]
		},
		{
			"mesh":4,
			"name":"Plane024_01 - Default_0",
			"translation":[
				-4.9114227294921875e-05,
				0,
				1.4781951904296875e-05
			]
		},
		{
			"mesh":5,
			"name":"Plane024_01 - Default_0.001",
			"translation":[
				-4.9114227294921875e-05,
				0,
				1.4781951904296875e-05
			]
		},
		{
			"mesh":6,
			"name":"Plane024_01 - Default_0.002",
			"translation":[
				-4.9114227294921875e-05,
				0,
				1.4781951904296875e-05
			]
		},
		{
			"mesh":7,
			"name":"Plane024_01 - Default_0.003",
			"translation":[
				-4.9114227294921875e-05,
				0,
				1.4781951904296875e-05
			]
		},
		{
			"children":[
				10,
				11,
				12,
				13
			],
			"name":"Plane024",
			"rotation":[
				-0.30041950941085815,
				-0.043246082961559296,
				-0.005693531595170498,
				0.9528092741966248
			],
			"translation":[
				569.3619995117188,
				388.5293273925781,
				8.66969108581543
			]
		},
		{
			"children":[
				2,
				4,
				6,
				9,
				14
			],
			"name":"RootNode"
		},
		{
			"children":[
				15
			],
			"name":"f340cec87c1a47d6bc08b8d88280c75a.fbx",
			"rotation":[
				0.70710688829422,
				0,
				0,
				0.7071066498756409
			]
		},
		{
			"children":[
				16
			],
			"name":"Sketchfab_model",
			"rotation":[
				-0.70710688829422,
				0,
				0,
				0.7071066498756409
			],
			"translation":[
				1.2288814783096313,
				0,
				0.2466757446527481
			]
		},
		{
			"mesh":8,
			"name":"Island3_House_cube_01",
			"rotation":[
				-0.07946573942899704,
				-0.040150951594114304,
				0.04555986076593399,
				0.9949861168861389
			],
			"translation":[
				475.1907043457031,
				248.72622680664062,
				313.0364990234375
			]
		},
		{
			"mesh":9,
			"name":"Island3_House_cube_02",
			"rotation":[
				-0.046864643692970276,
				0.7000775337219238,
				-0.09945603460073471,
				0.7055520415306091
			],
			"translation":[
				533.3924560546875,
				-96.299072265625,
				-90.81484985351562
			]
		}
	],
	"materials":[
		{
			"doubleSided":true,
			"name":"03_-_Default",
			"pbrMetallicRoughness":{
				"baseColorTexture":{
					"index":0
				},
				"metallicFactor":0,
				"roughnessFactor":0.6000000238418579
			}
		},
		{
			"doubleSided":true,
			"emissiveFactor":[
				1,
				1,
				1
			],
			"emissiveTexture":{
				"index":1
			},
			"name":"09_-_Default",
			"pbrMetallicRoughness":{
				"baseColorFactor":[
					0.02294338308274746,
					0.038203414529561996,
					0.06116867810487747,
					1
				],
				"metallicFactor":0,
				"roughnessFactor":0.6000000238418579
			}
		},
		{
			"emissiveFactor":[
				1,
				1,
				1
			],
			"emissiveTexture":{
				"index":2
			},
			"name":"02_-_Default",
			"pbrMetallicRoughness":{
				"metallicFactor":0,
				"roughnessFactor":0.6000000238418579
			}
		},
		{
			"alphaMode":"BLEND",
			"doubleSided":true,
			"name":"10_-_Default",
			"pbrMetallicRoughness":{
				"baseColorFactor":[
					0.08709197491407394,
					0.1258874386548996,
					0.2438378632068634,
					1
				],
				"baseColorTexture":{
					"index":3
				},
				"metallicFactor":0,
				"roughnessFactor":0.6000000238418579
			}
		},
		{
			"doubleSided":true,
			"emissiveFactor":[
				1,
				1,
				1
			],
			"emissiveTexture":{
				"index":4
			},
			"name":"01_-_Default",
			"pbrMetallicRoughness":{
				"baseColorTexture":{
					"index":5
				},
				"metallicFactor":0,
				"roughnessFactor":0.6000000238418579
			}
		}
	],
	"meshes":[
		{
			"name":"Cylinder019_03 - Default_0",
			"primitives":[
				{
					"attributes":{
						"POSITION":0,
						"TEXCOORD_0":1,
						"TEXCOORD_1":2,
						"TEXCOORD_2":3,
						"NORMAL":4
					},
					"indices":5,
					"material":0
				}
			]
		},
		{
			"name":"Cylinder039_09 - Default_0",
			"primitives":[
				{
					"attributes":{
						"POSITION":6,
						"TEXCOORD_0":7,
						"NORMAL":8
					},
					"indices":9,
					"material":1
				}
			]
		},
		{
			"name":"Object234_02 - Default_0",
			"primitives":[
				{
					"attributes":{
						"POSITION":10,
						"TEXCOORD_0":11,
						"NORMAL":12
					},
					"indices":13,
					"material":2
				}
			]
		},
		{
			"name":"Object235_10 - Default_0",
			"primitives":[
				{
					"attributes":{
						"POSITION":14,
						"TEXCOORD_0":15,
						"TEXCOORD_1":16,
						"TEXCOORD_2":17,
						"NORMAL":18
					},
					"indices":19,
					"material":3
				}
			]
		},
		{
			"name":"Plane024_01 - Default_0",
			"primitives":[
				{
					"attributes":{
						"POSITION":20,
						"TEXCOORD_0":21,
						"TEXCOORD_1":22,
						"NORMAL":23
					},
					"indices":24,
					"material":4
				}
			]
		},
		{
			"name":"Plane024_01 - Default_0.001",
			"primitives":[
				{
					"attributes":{
						"POSITION":25,
						"TEXCOORD_0":26,
						"TEXCOORD_1":27,
						"NORMAL":28
					},
					"indices":29,
					"material":4
				}
			]
		},
		{
			"name":"Plane024_01 - Default_0.002",
			"primitives":[
				{
					"attributes":{
						"POSITION":30,
						"TEXCOORD_0":31,
						"TEXCOORD_1":32,
						"NORMAL":33
					},
					"indices":34,
					"material":4
				}
			]
		},
		{
			"name":"Plane024_01 - Default_0.003",
			"primitives":[
				{
					"attributes":{
						"POSITION":35,
						"TEXCOORD_0":36,
						"TEXCOORD_1":37,
						"NORMAL":38
					},
					"indices":39,
					"material":4
				}
			]
		},
		{
			"name":"Cube.001",
			"primitives":[
				{
					"attributes":{
						"POSITION":40,
						"TEXCOORD_0":41,
						"NORMAL":42
					},
					"indices":43
				}
			]
		},
		{
			"name":"Cube.002",
			"primitives":[
				{
					"attributes":{
						"POSITION":44,
						"TEXCOORD_0":45,
						"NORMAL":46
					},
					"indices":43
				}
			]
		}
	],
	"textures":[
		{
			"sampler":0,
			"source":0
		},
		{
			"sampler":0,
			"source":1
		},
		{
			"sampler":0,
			"source":2
		},
		{
			"sampler":0,
			"source":3
		},
		{
			"sampler":0,
			"source":4
		},
		{
			"sampler":0,
			"source":5
		}
	],
	"images":[
		{
			"mimeType":"image/jpeg",
			"name":"03_-_Default_baseColor",
			"uri":"03_-_Default_baseColor.jpg"
		},
		{
			"mimeType":"image/jpeg",
			"name":"09_-_Default_emissive",
			"uri":"09_-_Default_emissive.jpg"
		},
		{
			"mimeType":"image/jpeg",
			"name":"02_-_Default_emissive",
			"uri":"02_-_Default_emissive.jpg"
		},
		{
			"mimeType":"image/png",
			"name":"10_-_Default_baseColor",
			"uri":"10_-_Default_baseColor.png"
		},
		{
			"mimeType":"image/jpeg",
			"name":"01_-_Default_emissive",
			"uri":"01_-_Default_emissive.jpg"
		},
		{
			"mimeType":"image/jpeg",
			"name":"01_-_Default_baseColor",
			"uri":"01_-_Default_baseColor.jpg"
		}
	],
	"accessors":[
		{
			"bufferView":0,
			"componentType":5126,
			"count":306,
			"max":[
				1008.9616088867188,
				852.5054321289062,
				0.6106719970703125
			],
			"min":[
				-943.1758422851562,
				-989.4400634765625,
				-462.028076171875
			],
			"type":"VEC3"
		},
		{
			"bufferView":1,
			"componentType":5126,
			"count":306,
			"type":"VEC2"
		},
		{
			"bufferView":2,
			"componentType":5126,
			"count":306,
			"type":"VEC2"
		},
		{
			"bufferView":3,
			"componentType":5126,
			"count":306,
			"type":"VEC2"
		},
		{
			"bufferView":4,
			"componentType":5126,
			"count":306,
			"type":"VEC3"
		},
		{
			"bufferView":5,
			"componentType":5123,
			"count":804,
			"type":"SCALAR"
		},
		{
			"bufferView":6,
			"componentType":5126,
			"count":90,
			"max":[
				278.512451171875,
				263.1722106933594,
				-8.334239959716797
			],
			"min":[
				-278.512451171875,
				-263.1722106933594,
				-61.86454772949219
			],
			"type":"VEC3"
		},
		{
			"bufferView":7,
			"componentType":5126,
			"count":90,
			"type":"VEC2"
		},
		{
			"bufferView":8,
			"componentType":5126,
			"count":90,
			"type":"VEC3"
		},
		{
			"bufferView":9,
			"componentType":5123,
			"count":480,
			"type":"SCALAR"
		},
		{
			"bufferView":10,
			"componentType":5126,
			"count":204,
			"max":[
				1352.7083740234375,
				878.64453125,
				1045.5777587890625
			],
			"min":[
				-1537.7467041015625,
				-1392.321533203125,
				-1583.6358642578125
			],
			"type":"VEC3"
		},
		{
			"bufferView":11,
			"componentType":5126,
			"count":204,
			"type":"VEC2"
		},
		{
			"bufferView":12,
			"componentType":5126,
			"count":204,
			"type":"VEC3"
		},
		{
			"bufferView":13,
			"componentType":5123,
			"count":792,
			"type":"SCALAR"
		},
		{
			"bufferView":14,
			"componentType":5126,
			"count":72,
			"max":[
				1130.615478515625,
				961.7298583984375,
				-136.2147979736328
			],
			"min":[
				-1056.3980712890625,
				-1101.8333740234375,
				-152.18618774414062
			],
			"type":"VEC3"
		},
		{
			"bufferView":15,
			"componentType":5126,
			"count":72,
			"type":"VEC2"
		},
		{
			"bufferView":16,
			"componentType":5126,
			"count":72,
			"type":"VEC2"
		},
		{
			"bufferView":17,
			"componentType":5126,
			"count":72,
			"type":"VEC2"
		},
		{
			"bufferView":18,
			"componentType":5126,
			"count":72,
			"type":"VEC3"
		},
		{
			"bufferView":19,
			"componentType":5123,
			"count":108,
			"type":"SCALAR"
		},
		{
			"bufferView":20,
			"componentType":5126,
			"count":70495,
			"max":[
				267.06414794921875,
				55.90673828125,
				287.3768615722656
			],
			"min":[
				-304.7695007324219,
				-568.3772583007812,
				-436.6235046386719
			],
			"type":"VEC3"
		},
		{
			"bufferView":21,
			"componentType":5126,
			"count":70495,
			"type":"VEC2"
		},
		{
			"bufferView":22,
			"componentType":5126,
			"count":70495,
			"type":"VEC2"
		},
		{
			"bufferView":23,
			"componentType":5126,
			"count":70495,
			"type":"VEC3"
		},
		{
			"bufferView":24,
			"componentType":5125,
			"count":161322,
			"type":"SCALAR"
		},
		{
			"bufferView":25,
			"componentType":5126,
			"count":66897,
			"max":[
				250.04388427734375,
				171.1210479736328,
				269.80352783203125
			],
			"min":[
				-233.9798583984375,
				-480.5291442871094,
				-369.5680847167969
			],
			"type":"VEC3"
		},
		{
			"bufferView":26,
			"componentType":5126,
			"count":66897,
			"type":"VEC2"
		},
		{
			"bufferView":27,
			"componentType":5126,
			"count":66897,
			"type":"VEC2"
		},
		{
			"bufferView":28,
			"componentType":5126,
			"count":66897,
			"type":"VEC3"
		},
		{
			"bufferView":29,
			"componentType":5125,
			"count":150273,
			"type":"SCALAR"
		},
		{
			"bufferView":30,
			"componentType":5126,
			"count":69885,
			"max":[
				107.76039123535156,
				100.5174560546875,
				255.23965454101562
			],
			"min":[
				-455.8332824707031,
				-451.5720520019531,
				-485.29632568359375
			],
			"type":"VEC3"
		},
		{
			"bufferView":31,
			"componentType":5126,
			"count":69885,
			"type":"VEC2"
		},
		{
			"bufferView":32,
			"componentType":5126,
			"count":69885,
			"type":"VEC2"
		},
		{
			"bufferView":33,
			"componentType":5126,
			"count":69885,
			"type":"VEC3"
		},
		{
			"bufferView":34,
			"componentType":5125,
			"count":150831,
			"type":"SCALAR"
		},
		{
			"bufferView":35,
			"componentType":5126,
			"count":26718,
			"max":[
				234.2144012451172,
				469.3726501464844,
				496.45794677734375
			],
			"min":[
				-352.71881103515625,
				-445.6148681640625,
				-427.91650390625
			],
			"type":"VEC3"
		},
		{
			"bufferView":36,
			"componentType":5126,
			"count":26718,
			"type":"VEC2"
		},
		{
			"bufferView":37,
			"componentType":5126,
			"count":26718,
			"type":"VEC2"
		},
		{
			"bufferView":38,
			"componentType":5126,
			"count":26718,
			"type":"VEC3"
		},
		{
			"bufferView":39,
			"componentType":5123,
			"count":59160,
			"type":"SCALAR"
		},
		{
			"bufferView":40,
			"componentType":5126,
			"count":24,
			"max":[
				14.01637077331543,
				7.454243183135986,
				14.129770278930664
			],
			"min":[
				-14.01637077331543,
				-7.454243183135986,
				-14.129770278930664
			],
			"type":"VEC3"
		},
		{
			"bufferView":41,
			"componentType":5126,
			"count":24,
			"type":"VEC2"
		},
		{
			"bufferView":42,
			"componentType":5126,
			"count":24,
			"type":"VEC3"
		},
		{
			"bufferView":43,
			"componentType":5123,
			"count":36,
			"type":"SCALAR"
		},
		{
			"bufferView":44,
			"componentType":5126,
			"count":24,
			"max":[
				17.533470153808594,
				6.15726375579834,
				11.576983451843262
			],
			"min":[
				-17.533470153808594,
				-6.15726375579834,
				-11.576983451843262
			],
			"type":"VEC3"
		},
		{
			"bufferView":45,
			"componentType":5126,
			"count":24,
			"type":"VEC2"
		},
		{
			"bufferView":46,
			"componentType":5126,
			"count":24,
			"type":"VEC3"
		}
	],
	"bufferViews":[
		{
			"buffer":0,
			"byteLength":3672,
			"byteOffset":0,
			"target":34962
		},
		{
			"buffer":0,
			"byteLength":2448,
			"byteOffset":3672,
			"target":34962
		},
		{
			"buffer":0,
			"byteLength":2448,
			"byteOffset":6120,
			"target":34962
		},
		{
			"buffer":0,
			"byteLength":2448,
			"byteOffset":8568,
			"target":34962
		},
		{
			"buffer":0,
			"byteLength":3672,
			"byteOffset":11016,
			"target":34962
		},
		{
			"buffer":0,
			"byteLength":1608,
			"byteOffset":14688,
			"target":34963
		},
		{
			"buffer":0,
			"byteLength":1080,
			"byteOffset":16296,
			"target":34962
		},
		{
			"buffer":0,
			"byteLength":720,
			"byteOffset":17376,
			"target":34962
		},
		{
			"buffer":0,
			"byteLength":1080,
			"byteOffset":18096,
			"target":34962
		},
		{
			"buffer":0,
			"byteLength":960,
			"byteOffset":19176,
			"target":34963
		},
		{
			"buffer":0,
			"byteLength":2448,
			"byteOffset":20136,
			"target":34962
		},
		{
			"buffer":0,
			"byteLength":1632,
			"byteOffset":22584,
			"target":34962
		},
		{
			"buffer":0,
			"byteLength":2448,
			"byteOffset":24216,
			"target":34962
		},
		{
			"buffer":0,
			"byteLength":1584,
			"byteOffset":26664,
			"target":34963
		},
		{
			"buffer":0,
			"byteLength":864,
			"byteOffset":28248,
			"target":34962
		},
		{
			"buffer":0,
			"byteLength":576,
			"byteOffset":29112,
			"target":34962
		},
		{
			"buffer":0,
			"byteLength":576,
			"byteOffset":29688,
			"target":34962
		},
		{
			"buffer":0,
			"byteLength":576,
			"byteOffset":30264,
			"target":34962
		},
		{
			"buffer":0,
			"byteLength":864,
			"byteOffset":30840,
			"target":34962
		},
		{
			"buffer":0,
			"byteLength":216,
			"byteOffset":31704,
			"target":34963
		},
		{
			"buffer":0,
			"byteLength":845940,
			"byteOffset":31920,
			"target":34962
		},
		{
			"buffer":0,
			"byteLength":563960,
			"byteOffset":877860,
			"target":34962
		},
		{
			"buffer":0,
			"byteLength":563960,
			"byteOffset":1441820,
			"target":34962
		},
		{
			"buffer":0,
			"byteLength":845940,
			"byteOffset":2005780,
			"target":34962
		},
		{
			"buffer":0,
			"byteLength":645288,
			"byteOffset":2851720,
			"target":34963
		},
		{
			"buffer":0,
			"byteLength":802764,
			"byteOffset":3497008,
			"target":34962
		},
		{
			"buffer":0,
			"byteLength":535176,
			"byteOffset":4299772,
			"target":34962
		},
		{
			"buffer":0,
			"byteLength":535176,
			"byteOffset":4834948,
			"target":34962
		},
		{
			"buffer":0,
			"byteLength":802764,
			"byteOffset":5370124,
			"target":34962
		},
		{
			"buffer":0,
			"byteLength":601092,
			"byteOffset":6172888,
			"target":34963
		},
		{
			"buffer":0,
			"byteLength":838620,
			"byteOffset":6773980,
			"target":34962
		},
		{
			"buffer":0,
			"byteLength":559080,
			"byteOffset":7612600,
			"target":34962
		},
		{
			"buffer":0,
			"byteLength":559080,
			"byteOffset":8171680,
			"target":34962
		},
		{
			"buffer":0,
			"byteLength":838620,
			"byteOffset":8730760,
			"target":34962
		},
		{
			"buffer":0,
			"byteLength":603324,
			"byteOffset":9569380,
			"target":34963
		},
		{
			"buffer":0,
			"byteLength":320616,
			"byteOffset":10172704,
			"target":34962
		},
		{
			"buffer":0,
			"byteLength":213744,
			"byteOffset":10493320,
			"target":34962
		},
		{
			"buffer":0,
			"byteLength":213744,
			"byteOffset":10707064,
			"target":34962
		},
		{
			"buffer":0,
			"byteLength":320616,
			"byteOffset":10920808,
			"target":34962
		},
		{
			"buffer":0,
			"byteLength":118320,
			"byteOffset":11241424,
			"target":34963
		},
		{
			"buffer":0,
			"byteLength":288,
			"byteOffset":11359744,
			"target":34962
		},
		{
			"buffer":0,
			"byteLength":192,
			"byteOffset":11360032,
			"target":34962
		},
		{
			"buffer":0,
			"byteLength":288,
			"byteOffset":11360224,
			"target":34962
		},
		{
			"buffer":0,
			"byteLength":72,
			"byteOffset":11360512,
			"target":34963
		},
		{
			"buffer":0,
			"byteLength":288,
			"byteOffset":11360584,
			"target":34962
		},
		{
			"buffer":0,
			"byteLength":192,
			"byteOffset":11360872,
			"target":34962
		},
		{
			"buffer":0,
			"byteLength":288,
			"byteOffset":11361064,
			"target":34962
		}
	],
	"samplers":[
		{
			"magFilter":9729,
			"minFilter":9987
		}
	],
	"buffers":[
		{
			"byteLength":11361352,
			"uri":"scene2.bin"
		}
	]
}
