{
  "accessors": [
    {
      "bufferView": 2,
      "componentType": 5126,
      "count": 306,
      "max": [
        1008.9616088867188,
        852.5054321289063,
        0.6106719970703125
      ],
      "min": [
        -943.1758422851563,
        -989.4400634765625,
        -462.028076171875
      ],
      "type": "VEC3"
    },
    {
      "bufferView": 2,
      "byteOffset": 3672,
      "componentType": 5126,
      "count": 306,
      "max": [
        0.6373215913772583,
        0.65579754114151,
        0.998902440071106
      ],
      "min": [
        -0.641281008720398,
        -0.6695103645324707,
        0.7428027391433716
      ],
      "type": "VEC3"
    },
    {
      "bufferView": 1,
      "componentType": 5126,
      "count": 306,
      "max": [
        0.9999998807907104,
        1.0
      ],
      "min": [
        -1.1920928955078125e-07,
        2.9802322387695313e-08
      ],
      "type": "VEC2"
    },
    {
      "bufferView": 1,
      "byteOffset": 2448,
      "componentType": 5126,
      "count": 306,
      "max": [
        0.9999998807907104,
        1.0
      ],
      "min": [
        -1.1920928955078125e-07,
        2.9802322387695313e-08
      ],
      "type": "VEC2"
    },
    {
      "bufferView": 1,
      "byteOffset": 4896,
      "componentType": 5126,
      "count": 306,
      "max": [
        0.9714012742042542,
        0.999500036239624
      ],
      "min": [
        0.0005000000237487257,
        0.0005000000237487257
      ],
      "type": "VEC2"
    },
    {
      "bufferView": 0,
      "componentType": 5125,
      "count": 804,
      "type": "SCALAR"
    },
    {
      "bufferView": 2,
      "byteOffset": 7344,
      "componentType": 5126,
      "count": 65532,
      "max": [
        267.06414794921875,
        55.90673828125,
        287.3768615722656
      ],
      "min": [
        -304.7695007324219,
        -568.3772583007813,
        -436.6235046386719
      ],
      "type": "VEC3"
    },
    {
      "bufferView": 2,
      "byteOffset": 793728,
      "componentType": 5126,
      "count": 65532,
      "max": [
        0.999977707862854,
        0.9999461770057678,
        0.9999104142189026
      ],
      "min": [
        -0.9999615550041199,
        -0.9998362064361572,
        -0.9999300837516785
      ],
      "type": "VEC3"
    },
    {
      "bufferView": 1,
      "byteOffset": 7344,
      "componentType": 5126,
      "count": 65532,
      "max": [
        1.0027458667755127,
        1.0001916885375977
      ],
      "min": [
        0.0,
        -0.0003348111640661955
      ],
      "type": "VEC2"
    },
    {
      "bufferView": 1,
      "byteOffset": 531600,
      "componentType": 5126,
      "count": 65532,
      "max": [
        0.993922233581543,
        0.9927075505256653
      ],
      "min": [
        0.011964775621891022,
        0.009811419993638992
      ],
      "type": "VEC2"
    },
    {
      "bufferView": 0,
      "byteOffset": 3216,
      "componentType": 5125,
      "count": 161322,
      "type": "SCALAR"
    },
    {
      "bufferView": 2,
      "byteOffset": 1580112,
      "componentType": 5126,
      "count": 65532,
      "max": [
        250.04388427734375,
        171.1210479736328,
        269.80352783203125
      ],
      "min": [
        -233.9798583984375,
        -480.5291442871094,
        -369.5680847167969
      ],
      "type": "VEC3"
    },
    {
      "bufferView": 2,
      "byteOffset": 2366496,
      "componentType": 5126,
      "count": 65532,
      "max": [
        0.9999600052833557,
        0.999942421913147,
        1.0
      ],
      "min": [
        -0.9999999403953552,
        -0.9998681545257568,
        -0.9998834729194641
      ],
      "type": "VEC3"
    },
    {
      "bufferView": 1,
      "byteOffset": 1055856,
      "componentType": 5126,
      "count": 65532,
      "max": [
        1.0,
        1.0001916885375977
      ],
      "min": [
        -0.20771615207195282,
        -0.000301628140732646
      ],
      "type": "VEC2"
    },
    {
      "bufferView": 1,
      "byteOffset": 1580112,
      "componentType": 5126,
      "count": 65532,
      "max": [
        0.9948859214782715,
        0.9927032589912415
      ],
      "min": [
        0.008843198418617249,
        0.006689945235848427
      ],
      "type": "VEC2"
    },
    {
      "bufferView": 0,
      "byteOffset": 648504,
      "componentType": 5125,
      "count": 150288,
      "type": "SCALAR"
    },
    {
      "bufferView": 2,
      "byteOffset": 3152880,
      "componentType": 5126,
      "count": 65532,
      "max": [
        107.76039123535156,
        100.5174560546875,
        255.23965454101563
      ],
      "min": [
        -455.8332824707031,
        -451.5720520019531,
        -485.29632568359375
      ],
      "type": "VEC3"
    },
    {
      "bufferView": 2,
      "byteOffset": 3939264,
      "componentType": 5126,
      "count": 65532,
      "max": [
        0.9999808669090271,
        0.999430239200592,
        0.9998700022697449
      ],
      "min": [
        -0.9999727606773376,
        -0.9997243285179138,
        -0.99959796667099
      ],
      "type": "VEC3"
    },
    {
      "bufferView": 1,
      "byteOffset": 2104368,
      "componentType": 5126,
      "count": 65532,
      "max": [
        1.0,
        1.0001916885375977
      ],
      "min": [
        -0.00102284736931324,
        -0.0003010693471878767
      ],
      "type": "VEC2"
    },
    {
      "bufferView": 1,
      "byteOffset": 2628624,
      "componentType": 5126,
      "count": 65532,
      "max": [
        0.9948036074638367,
        0.991121768951416
      ],
      "min": [
        0.011964775621891022,
        0.006689945235848427
      ],
      "type": "VEC2"
    },
    {
      "bufferView": 0,
      "byteOffset": 1249656,
      "componentType": 5125,
      "count": 150831,
      "type": "SCALAR"
    },
    {
      "bufferView": 2,
      "byteOffset": 4725648,
      "componentType": 5126,
      "count": 26090,
      "max": [
        234.2144012451172,
        469.3726501464844,
        496.45794677734375
      ],
      "min": [
        -352.71881103515625,
        -445.6148681640625,
        -427.91650390625
      ],
      "type": "VEC3"
    },
    {
      "bufferView": 2,
      "byteOffset": 5038728,
      "componentType": 5126,
      "count": 26090,
      "max": [
        0.9992974996566772,
        0.9999522566795349,
        0.9999739527702332
      ],
      "min": [
        -0.9992974996566772,
        -0.9994267225265503,
        -0.9999579191207886
      ],
      "type": "VEC3"
    },
    {
      "bufferView": 1,
      "byteOffset": 3152880,
      "componentType": 5126,
      "count": 26090,
      "max": [
        1.0,
        0.9736305475234985
      ],
      "min": [
        -0.00102284736931324,
        0.0023771370761096478
      ],
      "type": "VEC2"
    },
    {
      "bufferView": 1,
      "byteOffset": 3361600,
      "componentType": 5126,
      "count": 26090,
      "max": [
        0.9948856830596924,
        0.9803266525268555
      ],
      "min": [
        0.011964775621891022,
        0.009811419993638992
      ],
      "type": "VEC2"
    },
    {
      "bufferView": 0,
      "byteOffset": 1852980,
      "componentType": 5125,
      "count": 59160,
      "type": "SCALAR"
    },
    {
      "bufferView": 2,
      "byteOffset": 5351808,
      "componentType": 5126,
      "count": 90,
      "max": [
        278.512451171875,
        263.1722106933594,
        -8.334239959716797
      ],
      "min": [
        -278.512451171875,
        -263.1722106933594,
        -61.86454772949219
      ],
      "type": "VEC3"
    },
    {
      "bufferView": 2,
      "byteOffset": 5352888,
      "componentType": 5126,
      "count": 90,
      "max": [
        0.3537507653236389,
        0.3610936105251312,
        0.9988903999328613
      ],
      "min": [
        -0.353750616312027,
        -0.3610934317111969,
        0.9304875135421753
      ],
      "type": "VEC3"
    },
    {
      "bufferView": 1,
      "byteOffset": 3570320,
      "componentType": 5126,
      "count": 90,
      "max": [
        1.0,
        1.0
      ],
      "min": [
        0.0,
        0.0
      ],
      "type": "VEC2"
    },
    {
      "bufferView": 0,
      "byteOffset": 2089620,
      "componentType": 5125,
      "count": 480,
      "type": "SCALAR"
    },
    {
      "bufferView": 2,
      "byteOffset": 5353968,
      "componentType": 5126,
      "count": 203,
      "max": [
        1352.7083740234375,
        878.64453125,
        1045.5777587890625
      ],
      "min": [
        -1537.7467041015625,
        -1392.321533203125,
        -1583.6358642578125
      ],
      "type": "VEC3"
    },
    {
      "bufferView": 2,
      "byteOffset": 5356404,
      "componentType": 5126,
      "count": 203,
      "max": [
        0.9839087724685669,
        0.4567740857601166,
        0.7341611385345459
      ],
      "min": [
        -0.9878594875335693,
        -0.9946752786636353,
        -0.9926183223724365
      ],
      "type": "VEC3"
    },
    {
      "bufferView": 1,
      "byteOffset": 3571040,
      "componentType": 5126,
      "count": 203,
      "max": [
        1.0017086267471313,
        0.9974792003631592
      ],
      "min": [
        0.006858721375465393,
        0.003943325486034155
      ],
      "type": "VEC2"
    },
    {
      "bufferView": 0,
      "byteOffset": 2091540,
      "componentType": 5125,
      "count": 792,
      "type": "SCALAR"
    },
    {
      "bufferView": 2,
      "byteOffset": 5358840,
      "componentType": 5126,
      "count": 72,
      "max": [
        1130.615478515625,
        961.7298583984375,
        -136.2147979736328
      ],
      "min": [
        -1056.3980712890625,
        -1101.8333740234375,
        -152.18618774414063
      ],
      "type": "VEC3"
    },
    {
      "bufferView": 2,
      "byteOffset": 5359704,
      "componentType": 5126,
      "count": 72,
      "max": [
        0.02788504771888256,
        0.033952515572309494,
        1.0
      ],
      "min": [
        -0.021621916443109512,
        -0.020954111590981483,
        0.9994148015975952
      ],
      "type": "VEC3"
    },
    {
      "bufferView": 1,
      "byteOffset": 3572664,
      "componentType": 5126,
      "count": 72,
      "max": [
        0.9903810024261475,
        0.9744911193847656
      ],
      "min": [
        0.009649253450334072,
        0.025508036836981773
      ],
      "type": "VEC2"
    },
    {
      "bufferView": 1,
      "byteOffset": 3573240,
      "componentType": 5126,
      "count": 72,
      "max": [
        0.9903810024261475,
        0.9744911193847656
      ],
      "min": [
        0.009649253450334072,
        0.025508036836981773
      ],
      "type": "VEC2"
    },
    {
      "bufferView": 1,
      "byteOffset": 3573816,
      "componentType": 5126,
      "count": 72,
      "max": [
        0.9714012742042542,
        0.999500036239624
      ],
      "min": [
        0.0005000000237487257,
        0.0005000000237487257
      ],
      "type": "VEC2"
    },
    {
      "bufferView": 0,
      "byteOffset": 2094708,
      "componentType": 5125,
      "count": 108,
      "type": "SCALAR"
    }
  ],
  "asset": {
    "extras": {
      "author": "SilkevdSmissen (https://sketchfab.com/SilkevdSmissen)",
      "license": "CC-BY-NC-ND-4.0 (http://creativecommons.org/licenses/by-nc-nd/4.0/)",
      "source": "https://sketchfab.com/3d-models/home-of-an-exiled-seeress-00a13e9dd04c4c53856ee263ab54ed8f",
      "title": "Home of an Exiled Seeress"
    },
    "generator": "Sketchfab-12.68.0",
    "version": "2.0"
  },
  "bufferViews": [
    {
      "buffer": 0,
      "byteLength": 2095140,
      "name": "floatBufferViews",
      "target": 34963
    },
    {
      "buffer": 0,
      "byteLength": 3574392,
      "byteOffset": 2095140,
      "byteStride": 8,
      "name": "floatBufferViews",
      "target": 34962
    },
    {
      "buffer": 0,
      "byteLength": 5360568,
      "byteOffset": 5669532,
      "byteStride": 12,
      "name": "floatBufferViews",
      "target": 34962
    }
  ],
  "buffers": [
    {
      "byteLength": 11030100,
      "uri": "scene.bin"
    }
  ],
  "images": [
    {
      "uri": "textures/03_-_Default_baseColor.jpeg"
    },
    {
      "uri": "textures/01_-_Default_baseColor.jpeg"
    },
    {
      "uri": "textures/01_-_Default_emissive.jpeg"
    },
    {
      "uri": "textures/09_-_Default_emissive.jpeg"
    },
    {
      "uri": "textures/02_-_Default_emissive.jpeg"
    },
    {
      "uri": "textures/10_-_Default_baseColor.png"
    }
  ],
  "materials": [
    {
      "doubleSided": true,
      "name": "03_-_Default",
      "pbrMetallicRoughness": {
        "baseColorTexture": {
          "index": 0
        },
        "metallicFactor": 0.0,
        "roughnessFactor": 0.6
      }
    },
    {
      "doubleSided": true,
      "emissiveFactor": [
        1.0,
        1.0,
        1.0
      ],
      "emissiveTexture": {
        "index": 2
      },
      "name": "01_-_Default",
      "pbrMetallicRoughness": {
        "baseColorTexture": {
          "index": 1
        },
        "metallicFactor": 0.0,
        "roughnessFactor": 0.6
      }
    },
    {
      "doubleSided": true,
      "emissiveFactor": [
        1.0,
        1.0,
        1.0
      ],
      "emissiveTexture": {
        "index": 3
      },
      "name": "09_-_Default",
      "pbrMetallicRoughness": {
        "baseColorFactor": [
          0.02294338360519735,
          0.03820341415280278,
          0.061168677160403105,
          1.0
        ],
        "metallicFactor": 0.0,
        "roughnessFactor": 0.6
      }
    },
    {
      "emissiveFactor": [
        1.0,
        1.0,
        1.0
      ],
      "emissiveTexture": {
        "index": 4
      },
      "name": "02_-_Default",
      "pbrMetallicRoughness": {
        "metallicFactor": 0.0,
        "roughnessFactor": 0.6
      }
    },
    {
      "alphaMode": "BLEND",
      "doubleSided": true,
      "name": "10_-_Default",
      "pbrMetallicRoughness": {
        "baseColorFactor": [
          0.08709197697972056,
          0.12588743966426366,
          0.2438378681299503,
          1.0
        ],
        "baseColorTexture": {
          "index": 5
        },
        "metallicFactor": 0.0,
        "roughnessFactor": 0.6
      }
    }
  ],
  "meshes": [
    {
      "name": "Cylinder019_03 - Default_0",
      "primitives": [
        {
          "attributes": {
            "NORMAL": 1,
            "POSITION": 0,
            "TEXCOORD_0": 2,
            "TEXCOORD_1": 3,
            "TEXCOORD_2": 4
          },
          "indices": 5,
          "material": 0,
          "mode": 4
        }
      ]
    },
    {
      "name": "Plane024_01 - Default_0",
      "primitives": [
        {
          "attributes": {
            "NORMAL": 7,
            "POSITION": 6,
            "TEXCOORD_0": 8,
            "TEXCOORD_1": 9
          },
          "indices": 10,
          "material": 1,
          "mode": 4
        }
      ]
    },
    {
      "name": "Plane024_01 - Default_0",
      "primitives": [
        {
          "attributes": {
            "NORMAL": 12,
            "POSITION": 11,
            "TEXCOORD_0": 13,
            "TEXCOORD_1": 14
          },
          "indices": 15,
          "material": 1,
          "mode": 4
        }
      ]
    },
    {
      "name": "Plane024_01 - Default_0",
      "primitives": [
        {
          "attributes": {
            "NORMAL": 17,
            "POSITION": 16,
            "TEXCOORD_0": 18,
            "TEXCOORD_1": 19
          },
          "indices": 20,
          "material": 1,
          "mode": 4
        }
      ]
    },
    {
      "name": "Plane024_01 - Default_0",
      "primitives": [
        {
          "attributes": {
            "NORMAL": 22,
            "POSITION": 21,
            "TEXCOORD_0": 23,
            "TEXCOORD_1": 24
          },
          "indices": 25,
          "material": 1,
          "mode": 4
        }
      ]
    },
    {
      "name": "Cylinder039_09 - Default_0",
      "primitives": [
        {
          "attributes": {
            "NORMAL": 27,
            "POSITION": 26,
            "TEXCOORD_0": 28
          },
          "indices": 29,
          "material": 2,
          "mode": 4
        }
      ]
    },
    {
      "name": "Object234_02 - Default_0",
      "primitives": [
        {
          "attributes": {
            "NORMAL": 31,
            "POSITION": 30,
            "TEXCOORD_0": 32
          },
          "indices": 33,
          "material": 3,
          "mode": 4
        }
      ]
    },
    {
      "name": "Object235_10 - Default_0",
      "primitives": [
        {
          "attributes": {
            "NORMAL": 35,
            "POSITION": 34,
            "TEXCOORD_0": 36,
            "TEXCOORD_1": 37,
            "TEXCOORD_2": 38
          },
          "indices": 39,
          "material": 4,
          "mode": 4
        }
      ]
    }
  ],
  "nodes": [
    {
      "children": [
        1
      ],
      "matrix": [
        1.0,
        0.0,
        0.0,
        0.0,
        0.0,
        2.220446049250313e-16,
        -1.0,
        0.0,
        0.0,
        1.0,
        2.220446049250313e-16,
        0.0,
        1.2288814783096313,
        -5.477301826600736e-17,
        0.2466757446527481,
        1.0
      ],
      "name": "Sketchfab_model"
    },
    {
      "children": [
        2
      ],
      "matrix": [
        1.0,
        0.0,
        0.0,
        0.0,
        0.0,
        0.0,
        1.0,
        0.0,
        0.0,
        -1.0,
        0.0,
        0.0,
        0.0,
        0.0,
        0.0,
        1.0
      ],
      "name": "f340cec87c1a47d6bc08b8d88280c75a.fbx"
    },
    {
      "children": [
        3,
        6,
        11,
        13,
        15
      ],
      "name": "RootNode"
    },
    {
      "children": [
        4
      ],
      "matrix": [
        0.3078089952468872,
        0.0,
        0.0,
        0.0,
        0.0,
        7.009126831868901e-17,
        -0.31566300988197327,
        0.0,
        0.0,
        0.178616002202034,
        3.966071964223916e-17,
        0.0,
        486.62347412109375,
        -99.76649475097656,
        19.763225555419922,
        1.0
      ],
      "name": "Cylinder019"
    },
    {
      "children": [
        5
      ],
      "matrix": [
        1.0,
        0.0,
        -0.0,
        0.0,
        0.0,
        1.0,
        0.0,
        0.0,
        0.0,
        0.0,
        1.0,
        0.0,
        0.0,
        35.17708206176758,
        39.3058967590332,
        1.0
      ],
      "name": "Object_4"
    },
    {
      "mesh": 0,
      "name": "Cylinder019_03 - Default_0"
    },
    {
      "children": [
        7,
        8,
        9,
        10
      ],
      "matrix": [
        0.9961947199140291,
        0.015134233975989578,
        0.08583143350410283,
        0.0,
        0.036833629447004655,
        0.819431442384237,
        -0.5719924780745369,
        0.0,
        -0.07898964335385983,
        0.57297736970499,
        0.815755827468478,
        0.0,
        569.3619995117188,
        388.5293273925781,
        8.66969108581543,
        1.0
      ],
      "name": "Plane024"
    },
    {
      "mesh": 1,
      "name": "Plane024_01 - Default_0"
    },
    {
      "mesh": 2,
      "name": "Plane024_01 - Default_0"
    },
    {
      "mesh": 3,
      "name": "Plane024_01 - Default_0"
    },
    {
      "mesh": 4,
      "name": "Plane024_01 - Default_0"
    },
    {
      "children": [
        12
      ],
      "matrix": [
        5.405279159545898,
        0.0,
        0.0,
        0.0,
        0.0,
        1.2308356458747222e-15,
        -5.543190956115723,
        0.0,
        0.0,
        3.039987087249756,
        6.750127317655687e-16,
        0.0,
        488.67132568359375,
        -107.09212493896484,
        5.273889541625977,
        1.0
      ],
      "name": "Cylinder039"
    },
    {
      "mesh": 5,
      "name": "Cylinder039_09 - Default_0"
    },
    {
      "children": [
        14
      ],
      "matrix": [
        0.9961947199140291,
        0.015134233975989585,
        0.08583143350410281,
        0.0,
        0.036833622889958464,
        0.8194314899479254,
        -0.5719924103574482,
        0.0,
        -0.07898964641147312,
        0.5729773016827832,
        0.815755874950409,
        0.0,
        569.3619995117188,
        388.5293273925781,
        8.66969108581543,
        1.0
      ],
      "name": "Object234"
    },
    {
      "mesh": 6,
      "name": "Object234_02 - Default_0"
    },
    {
      "children": [
        16
      ],
      "matrix": [
        0.3078089952468872,
        0.0,
        0.0,
        0.0,
        0.0,
        7.009126831868901e-17,
        -0.31566300988197327,
        0.0,
        0.0,
        0.178616002202034,
        3.966071964223916e-17,
        0.0,
        486.62347412109375,
        -113.34461975097656,
        19.763225555419922,
        1.0
      ],
      "name": "Object235"
    },
    {
      "children": [
        17
      ],
      "matrix": [
        1.0,
        0.0,
        -0.0,
        0.0,
        0.0,
        1.0,
        0.0,
        0.0,
        0.0,
        0.0,
        1.0,
        0.0,
        0.0,
        35.17708206176758,
        39.3058967590332,
        1.0
      ],
      "name": "Object_16"
    },
    {
      "mesh": 7,
      "name": "Object235_10 - Default_0"
    }
  ],
  "samplers": [
    {
      "magFilter": 9729,
      "minFilter": 9987,
      "wrapS": 10497,
      "wrapT": 10497
    }
  ],
  "scene": 0,
  "scenes": [
    {
      "name": "Sketchfab_Scene",
      "nodes": [
        0
      ]
    }
  ],
  "textures": [
    {
      "sampler": 0,
      "source": 0
    },
    {
      "sampler": 0,
      "source": 1
    },
    {
      "sampler": 0,
      "source": 2
    },
    {
      "sampler": 0,
      "source": 3
    },
    {
      "sampler": 0,
      "source": 4
    },
    {
      "sampler": 0,
      "source": 5
    }
  ]
}
